<?xml version="1.0" standalone="no"?>
<!DOCTYPE svg PUBLIC "-//W3C//DTD SVG 20010904//EN"
 "http://www.w3.org/TR/2001/REC-SVG-20010904/DTD/svg10.dtd">
<svg version="1.0" xmlns="http://www.w3.org/2000/svg"
 width="143.000000pt" height="176.000000pt" viewBox="0 0 143.000000 176.000000"
 preserveAspectRatio="xMidYMid meet">
<metadata>
Created by potrace 1.16, written by Peter Selinger 2001-2019
</metadata>
<g transform="translate(0.000000,176.000000) scale(0.100000,-0.100000)"
fill="#000000" stroke="none">
<path d="M825 1386 c-139 -44 -300 -179 -414 -346 -118 -172 -160 -292 -168
-478 -6 -126 -14 -144 -41 -89 -11 22 -10 30 4 52 20 30 13 51 -20 67 -20 8
-29 8 -41 -2 -17 -14 -20 -66 -4 -76 6 -3 19 -26 30 -50 11 -26 29 -49 44 -56
14 -6 33 -29 44 -52 21 -49 87 -111 145 -137 77 -35 210 -20 340 40 134 61
204 161 232 325 14 81 14 107 4 159 -14 75 -60 179 -101 229 l-29 37 31 45
c58 81 49 184 -16 200 -37 9 -90 -10 -110 -40 -9 -14 -19 -47 -22 -73 -5 -41
-1 -57 22 -99 27 -49 27 -50 9 -83 -10 -19 -39 -95 -65 -169 -26 -74 -48 -126
-48 -115 -1 11 6 97 14 190 8 94 15 195 14 225 l0 55 -22 -28 c-31 -38 -117
-210 -166 -335 -74 -186 -133 -286 -183 -313 -20 -11 -20 -9 -14 57 28 280
222 601 459 760 62 42 79 49 132 52 80 5 109 -8 136 -59 33 -66 24 -149 -26
-230 l-38 -62 75 -71 c96 -91 112 -121 113 -211 0 -64 -4 -77 -43 -150 -49
-89 -67 -112 -165 -197 -57 -48 -63 -58 -40 -52 96 22 185 93 253 200 43 69
90 197 90 248 0 80 -36 143 -116 200 -30 22 -54 43 -54 48 0 5 16 30 35 55 19
25 37 61 41 80 18 97 -45 220 -129 252 -38 15 -142 13 -192 -3z m34 -216 c3
-23 -36 -110 -50 -110 -4 0 -12 13 -19 30 -13 30 -7 74 12 98 18 21 53 10 57
-18z m-5 -289 c14 -27 33 -79 42 -116 15 -58 16 -81 6 -151 -13 -98 -34 -142
-102 -218 -94 -102 -247 -156 -358 -127 -47 13 -106 60 -128 102 -14 28 -14
28 41 64 83 53 145 159 214 368 18 53 35 97 38 97 4 0 3 -102 0 -227 -6 -207
-5 -226 9 -208 24 31 78 143 107 220 78 213 90 245 98 245 5 0 20 -22 33 -49z"/>
</g>
</svg>
